<svg width="291" height="60" viewBox="0 0 291 60" fill="none" xmlns="http://www.w3.org/2000/svg">
<g opacity="0.42">
<path d="M15.0178 25.8899C15.0178 27.036 14.0799 27.9651 12.923 27.9651C11.7661 27.9651 10.8282 27.036 10.8282 25.8899C10.8282 24.7438 11.7661 23.8147 12.923 23.8147C14.0799 23.8147 15.0178 24.7438 15.0178 25.8899Z" fill="#4EB9E8"/>
<path d="M21.6567 25.8899C21.6567 27.036 20.7188 27.9651 19.5619 27.9651C18.405 27.9651 17.4671 27.036 17.4671 25.8899C17.4671 24.7438 18.405 23.8147 19.5619 23.8147C20.7188 23.8147 21.6567 24.7438 21.6567 25.8899Z" fill="#4EB9E8"/>
<path d="M28.2956 25.8899C28.2956 27.036 27.3577 27.9651 26.2008 27.9651C25.0439 27.9651 24.106 27.036 24.106 25.8899C24.106 24.7438 25.0439 23.8147 26.2008 23.8147C27.3577 23.8147 28.2956 24.7438 28.2956 25.8899Z" fill="#4EB9E8"/>
<path fill-rule="evenodd" clip-rule="evenodd" d="M37.5323 22.7292C38.4993 22.7292 39.2405 21.8696 38.9995 20.9418C38.7334 19.9178 38.3872 18.9256 37.968 17.9722C37.042 15.8668 38.5924 11.1975 39.1715 7.90115C39.3546 6.85886 38.5112 6.03501 37.4512 6.16399C33.9786 6.58654 27.8662 7.63006 25.5493 6.91003C23.6466 6.31874 21.6222 6 19.5226 6C10.152 6 2.27822 12.3491 0.0458692 20.9416C-0.195157 21.8694 0.545958 22.7292 1.51299 22.7292C2.26635 22.7292 2.90602 22.1963 3.10422 21.4763C5.07315 14.3235 11.678 9.06489 19.5226 9.06489C27.3673 9.06489 33.9721 14.3234 35.941 21.4763C36.1392 22.1963 36.7789 22.7292 37.5323 22.7292Z" fill="#4EB9E8"/>
<path fill-rule="evenodd" clip-rule="evenodd" d="M19.5227 42.7788C27.3673 42.7788 33.9721 37.5202 35.9411 30.3673C36.1393 29.6473 36.7789 29.1145 37.5323 29.1145C38.4993 29.1145 39.2405 29.9742 38.9994 30.9019C38.0505 34.5545 36.0822 37.8017 33.4129 40.3281C30.6263 42.9655 23.8663 50.3902 20.9267 53.6409C20.1761 54.4709 18.8692 54.4709 18.1186 53.6409C15.179 50.3902 8.419 42.9655 5.63244 40.3281C2.96309 37.8017 0.994788 34.5545 0.0458669 30.9019C-0.195155 29.9742 0.545978 29.1145 1.51301 29.1145C2.26637 29.1145 2.90604 29.6473 3.10424 30.3673C5.07317 37.5202 11.678 42.7788 19.5227 42.7788Z" fill="#4A66FA"/>
<path d="M88.5577 12.8453C88.7496 12.4078 88.587 11.8923 88.1593 11.6794C87.3715 11.2873 86.4953 10.9608 85.5306 10.7C84.2936 10.3552 83.0565 10.1062 81.8195 9.95295C80.6211 9.7997 79.6354 9.72308 78.8622 9.72308C75.963 9.72308 73.3536 10.2403 71.0342 11.2747C68.7534 12.3092 66.8012 13.7651 65.1776 15.6424C63.554 17.4814 62.2976 19.646 61.4085 22.1363C60.5581 24.6267 60.1328 27.3469 60.1328 30.2969C60.1328 33.0554 60.5194 35.6415 61.2926 38.0552C62.0657 40.4689 63.2254 42.6144 64.7717 44.4917C66.318 46.3307 68.2315 47.7866 70.5123 48.8593C72.8317 49.8938 75.4991 50.411 78.5143 50.411C79.6354 50.411 80.8338 50.3152 82.1094 50.1237C83.4238 49.9321 84.6995 49.6639 85.9365 49.3191C86.7945 49.08 87.5594 48.8132 88.2315 48.5187C88.7043 48.3115 88.8772 47.7448 88.6396 47.2865L87.3378 44.776C87.1052 44.3274 86.5619 44.1429 86.0923 44.3294C85.2196 44.676 84.2592 44.9791 83.2112 45.2388C81.8195 45.5453 80.1766 45.6986 78.2824 45.6986C76.3109 45.6986 74.552 45.2963 73.0057 44.4917C71.498 43.6872 70.203 42.5761 69.1206 41.1585C68.0769 39.7027 67.2844 38.0552 66.7432 36.2162C66.202 34.3389 65.9314 32.3466 65.9314 30.2394C65.9314 27.0978 66.4919 24.3393 67.613 21.9639C68.7727 19.5886 70.319 17.7496 72.2519 16.4469C74.1847 15.106 76.3495 14.4355 78.7463 14.4355C80.022 14.4355 81.1044 14.5121 81.9935 14.6654C82.8826 14.7803 83.733 14.9527 84.5449 15.1826C85.1066 15.3417 85.6962 15.5283 86.3135 15.7424C86.7873 15.9068 87.3116 15.6858 87.5131 15.2265L88.5577 12.8453Z" fill="#4A66FA"/>
<path d="M96.9697 49.6064C97.4923 49.6064 97.916 49.1828 97.916 48.6601V31.159C98.8438 30.2778 99.8682 29.4732 100.989 28.7453C102.149 27.979 103.328 27.366 104.526 26.9063C105.279 26.6034 105.988 26.3926 106.655 26.2739C107.27 26.1643 107.726 25.5642 107.56 24.9617L106.863 22.4293C106.75 22.0186 106.376 21.7279 105.952 21.7748C105.147 21.8639 104.285 22.0993 103.367 22.4812C102.207 22.9792 101.086 23.5922 100.003 24.3202C98.9211 25.0098 98.0126 25.6611 97.2782 26.2741L95.7173 22.332C95.5744 21.9711 95.2256 21.7341 94.8375 21.7341H93.2957C92.7731 21.7341 92.3494 22.1578 92.3494 22.6804V48.6601C92.3494 49.1828 92.7731 49.6064 93.2957 49.6064H96.9697Z" fill="#4A66FA"/>
<path d="M122.786 50.3535C119.925 50.3535 117.451 49.7405 115.363 48.5145C113.276 47.2502 111.672 45.5262 110.551 43.3423C109.43 41.1202 108.869 38.5533 108.869 35.6415C108.908 32.7298 109.487 30.182 110.609 27.9982C111.768 25.8144 113.392 24.1094 115.479 22.8834C117.605 21.6191 120.118 20.987 123.018 20.987C125.917 20.987 128.41 21.6191 130.498 22.8834C132.585 24.1094 134.189 25.8335 135.31 28.0556C136.432 30.2395 136.992 32.7872 136.992 35.699C136.992 38.5724 136.412 41.1202 135.252 43.3423C134.093 45.5262 132.45 47.2502 130.324 48.5145C128.236 49.7405 125.723 50.3535 122.786 50.3535ZM122.844 45.6411C124.622 45.6411 126.129 45.2005 127.366 44.3193C128.642 43.4381 129.609 42.2504 130.266 40.7562C130.962 39.2621 131.309 37.5955 131.309 35.7565C131.309 33.8025 130.981 32.0785 130.324 30.5843C129.705 29.0518 128.777 27.8641 127.54 27.0212C126.303 26.14 124.796 25.6994 123.018 25.6994C121.278 25.6994 119.77 26.14 118.495 27.0212C117.258 27.9024 116.291 29.0901 115.595 30.5843C114.938 32.0785 114.59 33.745 114.552 35.5841C114.552 37.4997 114.861 39.2237 115.479 40.7562C116.137 42.2887 117.084 43.4956 118.321 44.3768C119.558 45.2197 121.065 45.6411 122.844 45.6411Z" fill="#4A66FA"/>
<path d="M139.697 47.0902C139.506 47.5136 139.648 48.0169 140.055 48.2418C140.709 48.6035 141.445 48.9243 142.264 49.2042C143.424 49.5873 144.584 49.8746 145.743 50.0662C146.903 50.2578 147.87 50.3535 148.643 50.3535C152.354 50.3535 155.176 49.6256 157.109 48.1697C159.08 46.6755 160.066 44.6258 160.066 42.0206C160.066 40.4881 159.583 39.1471 158.616 37.9977C157.688 36.8484 156.49 35.8714 155.021 35.0668C153.591 34.224 152.103 33.5343 150.556 32.998C148.855 32.4233 147.464 31.8294 146.381 31.2164C145.337 30.5651 144.796 29.818 144.758 28.9751C144.758 27.979 145.222 27.1553 146.149 26.504C147.116 25.8144 148.333 25.4695 149.802 25.4695C151.31 25.4695 152.644 25.6611 153.803 26.0442C154.688 26.327 155.541 26.6412 156.362 26.9866C156.843 27.1885 157.402 26.9843 157.622 26.512L158.639 24.3295C158.828 23.9225 158.708 23.4339 158.324 23.2008C157.686 22.8128 156.952 22.4771 156.123 22.1938C155.002 21.8107 153.881 21.5233 152.76 21.3318C151.677 21.1019 150.73 20.987 149.918 20.987C146.633 20.987 144.023 21.7149 142.09 23.1708C140.196 24.5883 139.249 26.5614 139.249 29.0901C139.249 30.5843 139.713 31.8677 140.641 32.9405C141.568 34.0132 142.728 34.9136 144.12 35.6415C145.55 36.3695 147 36.9825 148.469 37.4805C149.706 37.8636 150.788 38.3042 151.716 38.8023C152.644 39.2621 153.378 39.7793 153.919 40.354C154.461 40.9287 154.731 41.58 154.731 42.3079C154.731 42.9975 154.48 43.6105 153.977 44.1469C153.475 44.6833 152.76 45.1047 151.832 45.4112C150.943 45.7177 149.88 45.871 148.643 45.871C147.792 45.871 146.942 45.7943 146.091 45.6411C145.241 45.4878 144.39 45.2771 143.54 45.0089C143.02 44.8127 142.5 44.6007 141.98 44.373C141.496 44.1608 140.926 44.3695 140.708 44.8514L139.697 47.0902Z" fill="#4A66FA"/>
<path d="M162.769 47.0902C162.578 47.5136 162.721 48.0169 163.127 48.2418C163.781 48.6035 164.518 48.9243 165.337 49.2042C166.496 49.5873 167.656 49.8746 168.816 50.0662C169.976 50.2578 170.942 50.3535 171.715 50.3535C175.426 50.3535 178.248 49.6256 180.181 48.1697C182.153 46.6755 183.138 44.6258 183.138 42.0206C183.138 40.4881 182.655 39.1471 181.689 37.9977C180.761 36.8484 179.563 35.8714 178.094 35.0668C176.663 34.224 175.175 33.5343 173.629 32.998C171.928 32.4233 170.536 31.8294 169.454 31.2164C168.41 30.5651 167.869 29.818 167.83 28.9751C167.83 27.979 168.294 27.1553 169.222 26.504C170.188 25.8144 171.406 25.4695 172.875 25.4695C174.382 25.4695 175.716 25.6611 176.876 26.0442C177.76 26.327 178.613 26.6412 179.435 26.9866C179.915 27.1885 180.475 26.9843 180.695 26.512L181.711 24.3295C181.901 23.9225 181.78 23.4339 181.397 23.2008C180.758 22.8128 180.024 22.4771 179.195 22.1938C178.074 21.8107 176.953 21.5233 175.832 21.3318C174.75 21.1019 173.803 20.987 172.991 20.987C169.705 20.987 167.096 21.7149 165.163 23.1708C163.269 24.5883 162.321 26.5614 162.321 29.0901C162.321 30.5843 162.785 31.8677 163.713 32.9405C164.641 34.0132 165.801 34.9136 167.192 35.6415C168.623 36.3695 170.072 36.9825 171.541 37.4805C172.778 37.8636 173.861 38.3042 174.788 38.8023C175.716 39.2621 176.451 39.7793 176.992 40.354C177.533 40.9287 177.804 41.58 177.804 42.3079C177.804 42.9975 177.552 43.6105 177.05 44.1469C176.547 44.6833 175.832 45.1047 174.904 45.4112C174.015 45.7177 172.952 45.871 171.715 45.871C170.865 45.871 170.014 45.7943 169.164 45.6411C168.313 45.4878 167.463 45.2771 166.612 45.0089C166.092 44.8127 165.573 44.6007 165.053 44.373C164.568 44.1608 163.999 44.3695 163.781 44.8514L162.769 47.0902Z" fill="#4A66FA"/>
<path d="M207.27 28.6747C207.194 28.2181 206.799 27.8832 206.336 27.8832H194.324V14.7803H209.706C210.299 14.7803 210.746 14.2398 210.635 13.6566L210.185 11.2965C210.099 10.8504 209.709 10.5276 209.255 10.5276H188.757V48.6601C188.757 49.1828 189.181 49.6064 189.703 49.6064H193.377C193.9 49.6064 194.324 49.1828 194.324 48.6601V32.0785H206.718C207.303 32.0785 207.747 31.5539 207.652 30.9773L207.27 28.6747Z" fill="#4EB9E8"/>
<path d="M218.4 41.5608C218.4 40.2582 218.845 39.1088 219.734 38.1127C220.623 37.1166 221.918 36.6185 223.619 36.6185H230.461V42.2504C229.495 43.3232 228.374 44.2044 227.098 44.894C225.861 45.5836 224.527 45.9284 223.097 45.9284C222.053 45.9284 221.183 45.7177 220.487 45.2963C219.792 44.8365 219.27 44.281 218.922 43.6297C218.574 42.9401 218.4 42.2504 218.4 41.5608ZM216.318 26.8696C216.503 27.3864 217.087 27.6365 217.599 27.4386C218.406 27.1268 219.292 26.8344 220.256 26.5614C221.609 26.14 223.116 25.9293 224.778 25.9293C226.982 25.9293 228.47 26.5806 229.243 27.8832C230.016 29.1475 230.403 30.7375 230.403 32.6531V32.9405H223.735C220.681 32.9405 218.187 33.6876 216.255 35.1818C214.36 36.6376 213.413 38.764 213.413 41.5608C213.413 44.0894 214.206 46.1775 215.791 47.8249C217.414 49.4724 219.888 50.2961 223.213 50.2961C224.72 50.2961 226.228 49.9513 227.736 49.2616C229.243 48.572 230.48 47.8058 231.447 46.9629L231.957 48.901C232.066 49.3167 232.442 49.6064 232.872 49.6064H235.081C235.604 49.6064 236.028 49.1828 236.028 48.6601V30.6992C236.028 28.8985 235.525 27.2702 234.52 25.8144C233.554 24.3202 232.201 23.1516 230.461 22.3088C228.76 21.4276 226.827 20.987 224.662 20.987C223.889 20.987 222.884 21.1019 221.647 21.3318C220.41 21.5233 219.192 21.8107 217.994 22.1938C217.111 22.4478 216.354 22.7434 215.723 23.0805C215.343 23.284 215.197 23.7423 215.342 24.1489L216.318 26.8696Z" fill="#4EB9E8"/>
<path d="M261.938 44.657C261.727 44.16 261.145 43.9416 260.649 44.1554C259.751 44.5427 258.854 44.8656 257.956 45.1239C256.796 45.4687 255.366 45.6411 253.665 45.6411C251.887 45.6411 250.379 45.2197 249.142 44.3768C247.905 43.4956 246.958 42.2887 246.301 40.7562C245.682 39.2237 245.373 37.4997 245.373 35.5841C245.412 33.745 245.759 32.0785 246.417 30.5843C247.112 29.0901 248.079 27.9024 249.316 27.0212C250.592 26.14 252.099 25.6994 253.839 25.6994C255.501 25.6994 256.931 25.891 258.13 26.2741C259.036 26.5637 259.941 26.8861 260.847 27.2414C261.334 27.4323 261.887 27.2045 262.088 26.7218L263.058 24.3865C263.228 23.978 263.094 23.5022 262.712 23.2799C262.029 22.8827 261.236 22.5398 260.333 22.2513C259.135 21.8298 257.956 21.5233 256.796 21.3318C255.636 21.1019 254.67 20.987 253.897 20.987C250.998 20.987 248.485 21.6191 246.359 22.8834C244.233 24.1094 242.59 25.8144 241.43 27.9982C240.309 30.182 239.729 32.7298 239.69 35.6415C239.69 38.5533 240.251 41.1202 241.372 43.3423C242.493 45.5262 244.097 47.2502 246.185 48.5145C248.311 49.7405 250.804 50.3535 253.665 50.3535C254.477 50.3535 255.462 50.2386 256.622 50.0087C257.821 49.8172 259.019 49.5298 260.217 49.1467C261.104 48.835 261.884 48.4919 262.559 48.1173C262.958 47.8959 263.103 47.4051 262.925 46.985L261.938 44.657Z" fill="#4EB9E8"/>
<path d="M290.425 36.9058C290.743 36.9058 291 36.6485 291 36.3311C291 33.611 290.575 31.0823 289.724 28.7453C288.913 26.4082 287.598 24.5309 285.781 23.1133C284.003 21.6957 281.645 20.987 278.707 20.987C275.924 20.987 273.527 21.6191 271.517 22.8834C269.507 24.1094 267.96 25.8144 266.878 27.9982C265.796 30.182 265.254 32.7298 265.254 35.6415C265.254 38.5533 265.815 41.1202 266.936 43.3423C268.096 45.5262 269.816 47.2311 272.097 48.4571C274.377 49.6831 277.18 50.2961 280.505 50.2961C281.819 50.2961 283.075 50.162 284.274 49.8938C285.472 49.6256 286.612 49.2616 287.695 48.8019C288.497 48.4325 289.258 48.0526 289.975 47.6622C290.397 47.4327 290.566 46.9178 290.376 46.477L289.358 44.1241C289.146 43.6336 288.57 43.4166 288.084 43.6378C286.888 44.1818 285.791 44.6388 284.796 45.0089C283.597 45.4687 282.167 45.6986 280.505 45.6986C278.417 45.6986 276.697 45.3346 275.344 44.6067C273.991 43.8404 272.966 42.7868 272.271 41.4459C271.613 40.1049 271.208 38.5916 271.053 36.9058H290.425ZM271.169 33.1704C271.362 31.6379 271.749 30.3161 272.329 29.205C272.947 28.0939 273.778 27.2319 274.822 26.6189C275.866 26.0059 277.103 25.6994 278.533 25.6994C279.963 25.6994 281.142 26.0059 282.07 26.6189C283.037 27.2319 283.81 28.0939 284.39 29.205C284.97 30.3161 285.375 31.6379 285.607 33.1704H271.169Z" fill="#4EB9E8"/>
</g>
</svg>
